<?xml version="1.0" encoding="UTF-8" standalone="no"?>
<!-- Created with Inkscape (http://www.inkscape.org/) -->

<svg
   version="1.1"
   id="svg2"
   width="475.49106"
   height="313.66263"
   viewBox="0 0 475.49106 313.66263"
   xmlns="http://www.w3.org/2000/svg"
   xmlns:svg="http://www.w3.org/2000/svg">
  <defs
     id="defs6">
    <clipPath
       clipPathUnits="userSpaceOnUse"
       id="clipPath58">
      <path
         d="m 3621.72,3295.75 h 561.29 v -812.91 h -561.29 z"
         clip-rule="evenodd"
         id="path56" />
    </clipPath>
    <linearGradient
       x1="-21.948601"
       y1="0"
       x2="21.948601"
       y2="0"
       gradientUnits="userSpaceOnUse"
       gradientTransform="matrix(0,10,-10,0,3902.37,2889.3)"
       spreadMethod="pad"
       id="linearGradient64">
      <stop
         style="stop-opacity:1;stop-color:#656263"
         offset="0"
         id="stop60" />
      <stop
         style="stop-opacity:1;stop-color:#918f90"
         offset="1"
         id="stop62" />
    </linearGradient>
  </defs>
  <g
     id="g8"
     transform="matrix(1.3333333,0,0,-1.3333333,-112.7156,462.95599)">
    <g
       id="g10"
       transform="scale(0.1)">
      <path
         d="M 905.039,3472.17 H 4351.9 v -0.06 c 16.42,0 31.34,-6.72 42.14,-17.52 10.76,-10.76 17.44,-25.64 17.46,-42.05 h 0.05 v -0.04 -2233.13 -0.02 h -0.05 c -0.01,-16.42 -6.72,-31.34 -17.53,-42.14 -10.76,-10.76 -25.64,-17.44 -42.05,-17.46 v -0.05 h -0.04 -3446.841 -0.019 v 0.05 c -16.422,0.01 -31.34,6.72 -42.141,17.52 -10.754,10.77 -17.441,25.65 -17.453,42.05 h -0.059 v 0.05 2233.13 0.02 h 0.059 c 0.004,16.42 6.719,31.34 17.519,42.14 10.766,10.76 25.649,17.44 42.051,17.45 v 0.06 h 0.043"
         style="fill:#999999;fill-opacity:1;fill-rule:nonzero;stroke:none"
         id="path34" />
      <path
         d="M 4233.55,3365.02 H 1023.32 v 0.05 c -7.98,-0.01 -15.28,-3.31 -20.59,-8.63 -5.3,-5.29 -8.589,-12.58 -8.593,-20.58 h 0.054 v -0.02 -2079.81 -0.04 h -0.054 c 0.004,-7.99 3.308,-15.29 8.623,-20.6 5.29,-5.3 12.58,-8.59 20.58,-8.59 v 0.05 h 0.02 3210.19 0.04 v -0.05 c 7.99,0 15.29,3.31 20.61,8.62 5.29,5.3 8.58,12.59 8.58,20.59 h -0.05 v 0.02 2079.81 0.04 h 0.05 c 0,7.98 -3.31,15.28 -8.62,20.6 -5.29,5.29 -12.59,8.58 -20.59,8.59 v -0.05 h -0.02"
         style="fill:#993d00;fill-opacity:1;fill-rule:nonzero;stroke:none"
         id="path36" />
      <path
         d="m 1181.48,3297.58 h 2284.91 v -0.05 c 28.79,-0.01 54.93,-11.75 73.82,-30.65 18.9,-18.9 30.63,-45.02 30.64,-73.79 h 0.06 v -0.04 -1774.99 -0.02 h -0.06 c -0.01,-28.74 -11.76,-54.87 -30.68,-73.8 l 0.03,-0.03 c -18.89,-18.89 -45.01,-30.62 -73.79,-30.63 v -0.06 h -0.04 -2284.89 -0.02 v 0.06 c -28.79,0.01 -54.92,11.75 -73.82,30.65 v 0.05 c -18.89,18.89 -30.63,44.99 -30.64,73.74 h -0.05 v 0.04 1774.99 0.02 h 0.05 c 0.01,28.79 11.75,54.92 30.65,73.82 18.89,18.89 45.01,30.63 73.79,30.64 v 0.05 h 0.04"
         style="fill:#ff6600;fill-opacity:1;fill-rule:nonzero;stroke:none"
         id="path38" />
      <!-- <path
         d="m 3375.87,3104.74 c 41.7,-249.84 12.1079,-515.1266 12.1079,-795.4866 0,-280.34 29.5921,-553.0234 -12.1079,-802.8734 -317.28,-58.49 -657.4746,-14.9484 -1035.0946,-14.9484 -377.63,0 -751.5054,-43.5416 -1068.7954,14.9484 -41.7,249.85 -29.1906,515.4471 -29.1906,795.7871 0,280.36 -12.5094,552.7329 29.1906,802.5729 317.29,58.49 663.7617,31.789 1041.3917,31.789 377.62,0 745.2183,26.701 1062.4983,-31.789"
         style="fill:#cccccc;fill-opacity:1;fill-rule:evenodd;stroke:none"
         id="path40" /> -->
      <path
         d="m 4042.75,2314.33 c 81.05,-77.71 83.77,-206.41 6.07,-287.47 -77.71,-81.06 -206.41,-83.78 -287.47,-6.07 -81.06,77.7 -83.78,206.41 -6.07,287.46 77.7,81.07 206.41,83.78 287.47,6.08"
         style="fill:#b2b2b2;fill-opacity:1;fill-rule:evenodd;stroke:none"
         id="path44" />
      <path
         d="m 4086.22,2171.26 v 0 c 0.53,-24.83 -19.36,-45.58 -44.2,-46.11 l -359.6,-7.59 c -24.83,-0.53 -45.58,19.36 -46.1,44.19 v 0 c -0.53,24.84 19.36,45.59 44.2,46.11 l 359.6,7.6 c 24.83,0.52 45.58,-19.37 46.1,-44.2"
         style="fill:#e6e6e6;fill-opacity:1;fill-rule:evenodd;stroke:none"
         id="path46" />
      <path
         d="m 3902.05,1866.87 c 112.29,0 203.31,-91.02 203.31,-203.31 0,-112.29 -91.02,-203.32 -203.31,-203.32 -112.29,0 -203.32,91.03 -203.32,203.32 0,112.29 91.03,203.31 203.32,203.31"
         style="fill:#b2b2b2;fill-opacity:1;fill-rule:evenodd;stroke:none"
         id="path48" />
      <path
         d="m 4032.44,1793.68 v 0 c 17.56,-17.56 17.56,-46.3 0,-63.87 l -254.33,-254.33 c -17.57,-17.57 -46.31,-17.57 -63.87,0 v 0 c -17.57,17.56 -17.57,46.31 0,63.87 l 254.33,254.33 c 17.56,17.57 46.3,17.57 63.87,0"
         style="fill:#e6e6e6;fill-opacity:1;fill-rule:evenodd;stroke:none"
         id="path50" />
      <g
         id="g52">
        <g
           id="g54"
           clip-path="url(#clipPath58)">
          <path
             d="m 3621.72,3295.75 h 561.29 v -812.91 h -561.29 v 812.91"
             style="fill:url(#linearGradient64);fill-opacity:1;fill-rule:nonzero;stroke:none"
             id="path66" />
        </g>
      </g>
      <path
         d="m 3647.53,3258.38 h 509.68 v -738.16 h -509.68 v 738.16"
         style="fill:#b2b2b2;fill-opacity:1;fill-rule:evenodd;stroke:none"
         id="path68" />
      <path
         d="m 4157.21,3258.38 25.8,37.37 v -812.91 l -25.8,37.38 v 738.16"
         style="fill:#808080;fill-opacity:1;fill-rule:evenodd;stroke:none"
         id="path70" />
      <path
         d="m 3647.53,3258.38 -25.81,37.37 h 561.29 l -25.8,-37.37 h -509.68"
         style="fill:#999999;fill-opacity:1;fill-rule:evenodd;stroke:none"
         id="path72" />
      <path
         d="m 4183.01,2482.84 -25.8,37.38 h -509.68 l -25.81,-37.38 h 561.29"
         style="fill:#999999;fill-opacity:1;fill-rule:evenodd;stroke:none"
         id="path74" />
      <path
         d="m 3621.72,3295.75 25.81,-37.37 v -738.16 l -25.81,-37.38 v 812.91"
         style="fill:#cccccc;fill-opacity:1;fill-rule:evenodd;stroke:none"
         id="path76" />
      <path
         d="m 4061.4,3216.72 h 41.94 v -654.84 h -41.94 z m -72,0 h 41.94 v -654.84 h -41.94 z m -72,0 h 41.94 v -654.84 h -41.94 z m -72,0 h 41.94 v -654.84 h -41.94 z m -72,0 h 41.94 v -654.84 h -41.94 z m -72,0 h 41.94 v -654.84 h -41.94 v 654.84"
         style="fill:#ffffff;fill-opacity:1;fill-rule:evenodd;stroke:none"
         id="path78" />
    </g>
  </g>
</svg>
